<svg xmlns="http://www.w3.org/2000/svg" viewBox="0 0 486.21 63.69"><defs><style>.a468fa37-dbe5-4b22-8b80-8be7b111b4ae,.acd314a0-201d-4111-8112-d9bc4dc86625{fill:#005ca9;}.e31f0364-d80f-4188-8880-81bbc35956a8{fill:#1d1d1b;}.a52b7847-ff8f-486d-93de-9a3e0912c399,.b9517c06-da5c-4d0b-99ef-118c5a86a49c{fill:#00b1eb;}.acd314a0-201d-4111-8112-d9bc4dc86625,.b9517c06-da5c-4d0b-99ef-118c5a86a49c,.eb9a3940-dcf4-4038-8291-f0cfa51bdae5{fill-rule:evenodd;}.a2991fa6-8c0f-47ae-bc70-0b939e4166ca{fill:#fff;}</style></defs><g id="fa866e24-3e12-472b-a21b-2eebbface87a" data-name="Слой 2"><g id="e4fd6f28-19e5-4c6d-8fb0-ca598607b149" data-name="Layer 1"><polygon class="a468fa37-dbe5-4b22-8b80-8be7b111b4ae" points="304.83 15.74 306.54 15.74 306.54 27.81 304.83 27.81 304.83 28.26 310.31 28.26 310.31 27.81 308.6 27.81 308.6 15.74 310.31 15.74 310.31 15.29 304.83 15.29 304.83 15.74"/><polygon class="a468fa37-dbe5-4b22-8b80-8be7b111b4ae" points="248.56 15.74 250.26 15.74 250.26 27.81 248.56 27.81 248.56 28.26 254.03 28.26 254.03 27.81 252.33 27.81 252.33 15.74 254.03 15.74 254.03 15.29 248.56 15.29 248.56 15.74"/><polygon class="a468fa37-dbe5-4b22-8b80-8be7b111b4ae" points="291.54 15.74 293.24 15.74 293.24 27.81 291.54 27.81 291.54 28.26 297.01 28.26 297.01 27.81 295.31 27.81 295.31 15.74 297.01 15.74 297.01 15.29 291.54 15.29 291.54 15.74"/><polygon class="a468fa37-dbe5-4b22-8b80-8be7b111b4ae" points="320.21 15.64 322.18 15.64 322.18 24.42 322.14 24.42 315.71 15.19 311.54 15.19 311.54 15.64 313.21 15.64 313.21 27.71 311.54 27.71 311.54 28.16 315.76 28.16 315.76 27.71 313.76 27.71 313.76 16.06 313.79 16.06 322.38 28.37 322.72 28.28 322.72 15.64 324.39 15.64 324.39 15.19 320.21 15.19 320.21 15.64"/><polygon class="a468fa37-dbe5-4b22-8b80-8be7b111b4ae" points="332.95 15.74 334.59 15.74 334.59 21.36 328.94 21.36 328.94 15.74 330.58 15.74 330.58 15.29 325.18 15.29 325.18 15.74 326.88 15.74 326.88 27.81 325.18 27.81 325.18 28.26 330.58 28.26 330.58 27.81 328.94 27.81 328.94 21.81 334.59 21.81 334.59 27.81 332.95 27.81 332.95 28.26 338.36 28.26 338.36 27.81 336.65 27.81 336.65 15.74 338.36 15.74 338.36 15.29 332.95 15.29 332.95 15.74"/><polygon class="a468fa37-dbe5-4b22-8b80-8be7b111b4ae" points="122.31 15.74 123.95 15.74 123.95 21.36 118.3 21.36 118.3 15.74 119.94 15.74 119.94 15.29 114.53 15.29 114.53 15.74 116.24 15.74 116.24 27.81 114.53 27.81 114.53 28.26 119.94 28.26 119.94 27.81 118.3 27.81 118.3 21.81 123.95 21.81 123.95 27.81 122.31 27.81 122.31 28.26 127.72 28.26 127.72 27.81 126.01 27.81 126.01 15.74 127.72 15.74 127.72 15.29 122.31 15.29 122.31 15.74"/><path class="a468fa37-dbe5-4b22-8b80-8be7b111b4ae" d="M345.25,15.19h-.36L340.6,27.92h-1.53v.45h4.06v-.45h-1.91l1.33-4.08h3.37l1.24,4.08h-1.89v.45h5.85v-.45h-1.68Zm-2.52,8.08,1.56-4.63h0l1.44,4.63Z"/><path class="a468fa37-dbe5-4b22-8b80-8be7b111b4ae" d="M215.46,15.19h-.36l-4.28,12.73h-1.53v.45h4.05v-.45h-1.9l1.32-4.08h3.38l1.23,4.08h-1.89v.45h5.85v-.45h-1.67Zm-2.52,8.08,1.56-4.63h0L216,23.27Z"/><path class="a468fa37-dbe5-4b22-8b80-8be7b111b4ae" d="M273,15.19h-.36l-4.29,12.73H266.8v.45h4.05v-.45h-1.91l1.33-4.08h3.37l1.24,4.08H273v.45h5.85v-.45h-1.67Zm-2.52,8.08L272,18.64h0l1.43,4.63Z"/><polygon class="a468fa37-dbe5-4b22-8b80-8be7b111b4ae" points="162.59 15.64 164.56 15.64 164.56 24.42 164.52 24.42 158.08 15.19 153.92 15.19 153.92 15.64 155.59 15.64 155.59 27.71 153.92 27.71 153.92 28.16 158.14 28.16 158.14 27.71 156.14 27.71 156.14 16.06 156.17 16.06 164.75 28.37 165.1 28.28 165.1 15.64 166.77 15.64 166.77 15.19 162.59 15.19 162.59 15.64"/><path class="a468fa37-dbe5-4b22-8b80-8be7b111b4ae" d="M148.36,27.81h-2.75V21.93h1c2.12,0,2.23.6,2.24,2.87h.55V18.61h-.55c0,2-.12,2.75-2.24,2.75h-1V15.74h.87c4.15,0,4.82.33,5.38,3.54h.48l-.11-4H141.84v.45h1.7V27.81h-1.7v.45h10.92l.16-4.43h-.49C152.05,26.42,151.14,27.81,148.36,27.81Z"/><path class="a468fa37-dbe5-4b22-8b80-8be7b111b4ae" d="M106.83,17.77a2.22,2.22,0,0,1,2.48-2.13c1.7,0,2.75,1,3.19,3.07H113l-.1-2.85a8.73,8.73,0,0,0-3.36-.78c-2.14,0-4.1,1.29-4.1,3.59,0,4.48,7,3.22,7,6.72,0,1.74-1.49,2.52-3,2.52A4,4,0,0,1,105.69,24h-.5l.13,3.67a9,9,0,0,0,3.9.82c2.25,0,4.53-1.46,4.53-3.95C113.75,19.68,106.83,21,106.83,17.77Z"/><polygon class="a468fa37-dbe5-4b22-8b80-8be7b111b4ae" points="203.37 15.74 205.01 15.74 205.01 21.36 199.36 21.36 199.36 15.74 201 15.74 201 15.29 195.59 15.29 195.59 15.74 197.3 15.74 197.3 27.81 195.59 27.81 195.59 28.26 201 28.26 201 27.81 199.36 27.81 199.36 21.81 205.01 21.81 205.01 27.81 203.37 27.81 203.37 28.26 208.78 28.26 208.78 27.81 207.07 27.81 207.07 15.74 208.78 15.74 208.78 15.29 203.37 15.29 203.37 15.74"/><polygon class="a468fa37-dbe5-4b22-8b80-8be7b111b4ae" points="229.82 15.74 231.47 15.74 231.47 21.36 225.82 21.36 225.82 15.74 227.46 15.74 227.46 15.29 222.05 15.29 222.05 15.74 223.76 15.74 223.76 27.81 222.05 27.81 222.05 28.26 227.46 28.26 227.46 27.81 225.82 27.81 225.82 21.81 231.47 21.81 231.47 27.81 229.82 27.81 229.82 28.26 235.24 28.26 235.24 27.81 233.53 27.81 233.53 15.74 235.24 15.74 235.24 15.29 229.82 15.29 229.82 15.74"/><path class="a468fa37-dbe5-4b22-8b80-8be7b111b4ae" d="M188.2,17.77a2.22,2.22,0,0,1,2.48-2.13c1.7,0,2.75,1,3.19,3.07h.48l-.11-2.85a8.73,8.73,0,0,0-3.36-.78c-2.14,0-4.1,1.29-4.1,3.59,0,4.48,7,3.22,7,6.72,0,1.74-1.49,2.52-3,2.52A4,4,0,0,1,187.06,24h-.5l.13,3.67a9,9,0,0,0,3.89.82c2.26,0,4.54-1.46,4.54-3.95C195.12,19.68,188.2,21,188.2,17.77Z"/><path class="a468fa37-dbe5-4b22-8b80-8be7b111b4ae" d="M79.93,19.45h.55c.07-1.69.76-3.59,2.64-3.59h1.56v12h-2v.45h6.06v-.45h-2V15.86H88.3c1.86,0,2.57,1.9,2.64,3.59h.54V15.29H79.93Z"/><path class="a468fa37-dbe5-4b22-8b80-8be7b111b4ae" d="M167.59,19.45h.55c.07-1.69.76-3.59,2.63-3.59h1.57v12h-2v.45h6.06v-.45h-2V15.86H176c1.85,0,2.57,1.9,2.64,3.59h.54V15.29H167.59Z"/><path class="a468fa37-dbe5-4b22-8b80-8be7b111b4ae" d="M364.77,15.69h2v8.47c0,2.18-.35,3.6-3.77,3.6-2.93,0-3.44-1.11-3.44-3.45V15.69h1.79v-.46h-5.53v.46h1.68v8.85c0,2.44.58,3.78,4.94,3.78s4.87-1.47,4.87-4V15.69h1.53v-.46h-4Z"/><polygon class="a468fa37-dbe5-4b22-8b80-8be7b111b4ae" points="378.45 15.64 380.41 15.64 380.41 24.42 380.38 24.42 373.94 15.19 369.78 15.19 369.78 15.64 371.45 15.64 371.45 27.71 369.78 27.71 369.78 28.16 373.99 28.16 373.99 27.71 371.99 27.71 371.99 16.06 372.03 16.06 380.61 28.37 380.96 28.28 380.96 15.64 382.63 15.64 382.63 15.19 378.45 15.19 378.45 15.64"/><polygon class="a468fa37-dbe5-4b22-8b80-8be7b111b4ae" points="383.5 15.74 385.21 15.74 385.21 27.81 383.5 27.81 383.5 28.26 388.98 28.26 388.98 27.81 387.27 27.81 387.27 15.74 388.98 15.74 388.98 15.29 383.5 15.29 383.5 15.74"/><polygon class="a468fa37-dbe5-4b22-8b80-8be7b111b4ae" points="397.98 15.64 399.85 15.64 396.64 25.18 396.6 25.18 393.57 15.64 395.44 15.64 395.44 15.19 389.93 15.19 389.93 15.64 391.41 15.64 395.66 28.37 396.06 28.37 400.49 15.64 401.83 15.64 401.83 15.19 397.98 15.19 397.98 15.64"/><path class="a468fa37-dbe5-4b22-8b80-8be7b111b4ae" d="M409.3,27.81h-2.76V21.93h1c2.11,0,2.22.6,2.24,2.87h.54V18.61h-.54c0,2-.13,2.75-2.24,2.75h-1V15.74h.88c4.15,0,4.82.33,5.38,3.54h.47l-.1-4h-10.4v.45h1.71V27.81h-1.71v.45h10.92l.16-4.43h-.48C413,26.42,412.08,27.81,409.3,27.81Z"/><path class="a468fa37-dbe5-4b22-8b80-8be7b111b4ae" d="M462.78,27.81H460V21.93h1c2.11,0,2.22.6,2.24,2.87h.54V18.61h-.54c0,2-.13,2.75-2.24,2.75h-1V15.74h.88c4.15,0,4.82.33,5.38,3.54h.47l-.11-4H456.26v.45H458V27.81h-1.71v.45h10.92l.16-4.43h-.49C466.47,26.42,465.56,27.81,462.78,27.81Z"/><path class="a468fa37-dbe5-4b22-8b80-8be7b111b4ae" d="M424.66,24.94c-.15-2.86-1-3.22-3.68-3.55v0c1.75-.22,3.09-.83,3.09-2.94,0-2.63-1.63-3.12-3.94-3.12h-5.31v.45h1.71V27.81h-1.71v.45h5.4v-.45h-1.63V21.72h1.14c2.32,0,2.72.78,2.86,3.14.17,2.55.33,3.4,2.54,3.4h1.33v-.45H426C424.89,27.81,424.75,26.87,424.66,24.94Zm-6.07-3.79V15.74h.94c1.86,0,2.47,1,2.47,2.69,0,1.49-.52,2.72-2.14,2.72Z"/><path class="a468fa37-dbe5-4b22-8b80-8be7b111b4ae" d="M245.75,24.94c-.15-2.86-1-3.22-3.69-3.55v0c1.75-.22,3.09-.83,3.09-2.94,0-2.63-1.63-3.12-3.93-3.12h-5.31v.45h1.7V27.81h-1.7v.45h5.4v-.45h-1.64V21.72h1.15c2.31,0,2.72.78,2.86,3.14.17,2.55.33,3.4,2.54,3.4h1.32v-.45h-.45C246,27.81,245.84,26.87,245.75,24.94Zm-6.08-3.79V15.74h1c1.85,0,2.47,1,2.47,2.69,0,1.49-.53,2.72-2.14,2.72Z"/><path class="a468fa37-dbe5-4b22-8b80-8be7b111b4ae" d="M429,17.77a2.22,2.22,0,0,1,2.48-2.13c1.7,0,2.75,1,3.19,3.07h.47l-.1-2.85a8.73,8.73,0,0,0-3.36-.78c-2.14,0-4.1,1.29-4.1,3.59,0,4.48,7,3.22,7,6.72,0,1.74-1.49,2.52-3,2.52A4,4,0,0,1,427.87,24h-.5l.13,3.67a9,9,0,0,0,3.89.82c2.26,0,4.54-1.46,4.54-3.95C435.93,19.68,429,21,429,17.77Z"/><polygon class="a468fa37-dbe5-4b22-8b80-8be7b111b4ae" points="437.11 15.74 438.82 15.74 438.82 27.81 437.11 27.81 437.11 28.26 442.59 28.26 442.59 27.81 440.88 27.81 440.88 15.74 442.59 15.74 442.59 15.29 437.11 15.29 437.11 15.74"/><polygon class="a468fa37-dbe5-4b22-8b80-8be7b111b4ae" points="480.74 15.74 482.45 15.74 482.45 27.81 480.74 27.81 480.74 28.26 486.21 28.26 486.21 27.81 484.51 27.81 484.51 15.74 486.21 15.74 486.21 15.29 480.74 15.29 480.74 15.74"/><path class="a468fa37-dbe5-4b22-8b80-8be7b111b4ae" d="M468,19.45h.54c.07-1.69.76-3.59,2.64-3.59h1.56v12h-2v.45h6.06v-.45h-2V15.86h1.57c1.85,0,2.56,1.9,2.63,3.59h.54V15.29H468Z"/><path class="a468fa37-dbe5-4b22-8b80-8be7b111b4ae" d="M443.69,19.45h.55c.07-1.69.76-3.59,2.63-3.59h1.57v12h-2v.45h6.06v-.45h-2V15.86h1.56c1.85,0,2.57,1.9,2.64,3.59h.54V15.29H443.69Z"/><path class="a468fa37-dbe5-4b22-8b80-8be7b111b4ae" d="M130.54,27.78v-12h-1.72v-.49h5.6v.49h-1.7v12h1.7v.49h-5.6v-.49Zm5.82-12.5h3.41v.49h-1.24l-4,4.49L140,27.78H141v.49h-4.81v-.49h1.14l-4.49-6.37,5-5.64h-1.5Z"/><path class="a468fa37-dbe5-4b22-8b80-8be7b111b4ae" d="M98.39,15.25c-3.18,0-5.75,2.43-5.75,6.53s2.57,6.53,5.75,6.53,5.74-2.43,5.74-6.53S101.56,15.25,98.39,15.25Zm3,10.2a2.47,2.47,0,0,1-1.22,1.85,4.21,4.21,0,0,1-1.87.47A2.92,2.92,0,0,1,96.11,27a3.52,3.52,0,0,1-.89-2A21.86,21.86,0,0,1,95,21.88a17.35,17.35,0,0,1,.31-4,2.45,2.45,0,0,1,1.15-1.62,4,4,0,0,1,1.93-.46,3.7,3.7,0,0,1,1.81.43,2.55,2.55,0,0,1,1.13,1.42,12,12,0,0,1,.36,3.58A22.65,22.65,0,0,1,101.44,25.45Z"/><path class="a468fa37-dbe5-4b22-8b80-8be7b111b4ae" d="M256.4,27.74V15.82h-1.66v-.49h5.55a8.59,8.59,0,0,1,3.3.57,4.73,4.73,0,0,1,2.28,2.24,7.3,7.3,0,0,1,.92,3.62,6.83,6.83,0,0,1-1,3.7,5.37,5.37,0,0,1-2.32,2.2,8.07,8.07,0,0,1-3.2.57h-5.52v-.49Zm2.19-11.92V27.74h1.59a7.24,7.24,0,0,0,2.05-.24,2.34,2.34,0,0,0,1.31-1.05,5.06,5.06,0,0,0,.7-2.05,21.82,21.82,0,0,0,.19-3.24,8.45,8.45,0,0,0-.59-3.59,2.62,2.62,0,0,0-1.42-1.47,7,7,0,0,0-2.2-.28Z"/><path class="a468fa37-dbe5-4b22-8b80-8be7b111b4ae" d="M288.65,19.22h-.57a7.79,7.79,0,0,0-.41-1.42,3.27,3.27,0,0,0-3.2-2.29,2.91,2.91,0,0,0-2.16.7,3.06,3.06,0,0,0-.83,1.76,23.2,23.2,0,0,0-.15,3,30.5,30.5,0,0,0,.23,4.71,2.9,2.9,0,0,0,.92,1.73,2.55,2.55,0,0,0,1.7.59,3,3,0,0,0,1.44-.35,1.55,1.55,0,0,0,.79-1,10.33,10.33,0,0,0,.16-2.06v-.69h-1.79v-.49h5.78v.49h-1.49a4,4,0,0,1-1.51,3.54,5.39,5.39,0,0,1-3.17,1.08,4.92,4.92,0,0,1-4-2,7.37,7.37,0,0,1-1.6-4.73A7.21,7.21,0,0,1,280.42,17a4.91,4.91,0,0,1,7.18-.81c.29.24.52-.34.52-.34h.51Z"/><polygon class="a468fa37-dbe5-4b22-8b80-8be7b111b4ae" points="80.08 35.9 81.79 35.9 81.79 47.99 80.08 47.99 80.08 48.45 85.57 48.45 85.57 47.99 83.86 47.99 83.86 35.9 85.57 35.9 85.57 35.44 80.08 35.44 80.08 35.9"/><polygon class="a468fa37-dbe5-4b22-8b80-8be7b111b4ae" points="96.02 35.9 97.99 35.9 97.99 44.7 97.95 44.7 91.5 35.44 87.33 35.44 87.33 35.9 89 35.9 89 47.99 87.33 47.99 87.33 48.45 91.56 48.45 91.56 47.99 89.55 47.99 89.55 36.32 89.59 36.32 98.19 48.66 98.53 48.57 98.53 35.9 100.21 35.9 100.21 35.44 96.02 35.44 96.02 35.9"/><polygon class="a468fa37-dbe5-4b22-8b80-8be7b111b4ae" points="253.37 35.9 255.08 35.9 255.08 47.99 253.37 47.99 253.37 48.45 258.86 48.45 258.86 47.99 257.15 47.99 257.15 35.9 258.86 35.9 258.86 35.44 253.37 35.44 253.37 35.9"/><polygon class="a468fa37-dbe5-4b22-8b80-8be7b111b4ae" points="269.3 35.9 271.27 35.9 271.27 44.7 271.24 44.7 264.79 35.44 260.62 35.44 260.62 35.9 262.29 35.9 262.29 47.99 260.62 47.99 260.62 48.45 264.84 48.45 264.84 47.99 262.83 47.99 262.83 36.32 262.87 36.32 271.47 48.66 271.82 48.57 271.82 35.9 273.5 35.9 273.5 35.44 269.3 35.44 269.3 35.9"/><polygon class="a468fa37-dbe5-4b22-8b80-8be7b111b4ae" points="109.61 35.9 111.26 35.9 111.26 41.53 105.6 41.53 105.6 35.9 107.24 35.9 107.24 35.44 101.82 35.44 101.82 35.9 103.53 35.9 103.53 47.99 101.82 47.99 101.82 48.45 107.24 48.45 107.24 47.99 105.6 47.99 105.6 41.98 111.26 41.98 111.26 47.99 109.61 47.99 109.61 48.45 115.04 48.45 115.04 47.99 113.32 47.99 113.32 35.9 115.04 35.9 115.04 35.44 109.61 35.44 109.61 35.9"/><polygon class="a468fa37-dbe5-4b22-8b80-8be7b111b4ae" points="319.44 35.9 321.08 35.9 321.08 41.53 315.42 41.53 315.42 35.9 317.06 35.9 317.06 35.44 311.64 35.44 311.64 35.9 313.35 35.9 313.35 47.99 311.64 47.99 311.64 48.45 317.06 48.45 317.06 47.99 315.42 47.99 315.42 41.98 321.08 41.98 321.08 47.99 319.44 47.99 319.44 48.45 324.86 48.45 324.86 47.99 323.15 47.99 323.15 35.9 324.86 35.9 324.86 35.44 319.44 35.44 319.44 35.9"/><path class="a468fa37-dbe5-4b22-8b80-8be7b111b4ae" d="M121.94,35.23h-.36L117.29,48h-1.54v.45h4.06V48H117.9l1.33-4.1h3.39l1.24,4.1H122v.45h5.87V48h-1.68Zm-2.53,8.11L121,38.69h0l1.43,4.65Z"/><path class="a468fa37-dbe5-4b22-8b80-8be7b111b4ae" d="M295.69,35.23h-.37L291,48H289.5v.45h4.06V48h-1.91L293,43.9h3.38L297.6,48h-1.89v.45h5.86V48h-1.68Zm-2.53,8.11,1.56-4.65h0l1.44,4.65Z"/><path class="a468fa37-dbe5-4b22-8b80-8be7b111b4ae" d="M142,35.89h2v8.5c0,2.19-.34,3.61-3.77,3.61-2.94,0-3.45-1.11-3.45-3.46V35.89h1.79v-.45H133v.45h1.68v8.88c0,2.44.58,3.79,5,3.79s4.89-1.48,4.89-4v-8.7H146v-.45h-4Z"/><polygon class="a468fa37-dbe5-4b22-8b80-8be7b111b4ae" points="156.45 35.9 158.42 35.9 158.42 44.7 158.38 44.7 151.93 35.44 147.76 35.44 147.76 35.9 149.43 35.9 149.43 47.99 147.76 47.99 147.76 48.45 151.98 48.45 151.98 47.99 149.98 47.99 149.98 36.32 150.01 36.32 158.62 48.66 158.96 48.57 158.96 35.9 160.64 35.9 160.64 35.44 156.45 35.44 156.45 35.9"/><polygon class="a468fa37-dbe5-4b22-8b80-8be7b111b4ae" points="360.47 35.9 362.44 35.9 362.44 44.7 362.4 44.7 355.95 35.44 351.78 35.44 351.78 35.9 353.45 35.9 353.45 47.99 351.78 47.99 351.78 48.45 356 48.45 356 47.99 354 47.99 354 36.32 354.04 36.32 362.64 48.66 362.99 48.57 362.99 35.9 364.66 35.9 364.66 35.44 360.47 35.44 360.47 35.9"/><polygon class="a468fa37-dbe5-4b22-8b80-8be7b111b4ae" points="162.39 35.9 164.1 35.9 164.1 47.99 162.39 47.99 162.39 48.45 167.88 48.45 167.88 47.99 166.17 47.99 166.17 35.9 167.88 35.9 167.88 35.44 162.39 35.44 162.39 35.9"/><polygon class="a468fa37-dbe5-4b22-8b80-8be7b111b4ae" points="176.6 35.9 178.47 35.9 175.25 45.46 175.22 45.46 172.18 35.9 174.05 35.9 174.05 35.44 168.52 35.44 168.52 35.9 170.01 35.9 174.27 48.66 174.67 48.66 179.11 35.9 180.45 35.9 180.45 35.44 176.6 35.44 176.6 35.9"/><path class="a468fa37-dbe5-4b22-8b80-8be7b111b4ae" d="M187.63,48h-2.76V42.09h1c2.12,0,2.23.61,2.24,2.89h.55V38.77h-.55c0,2-.12,2.76-2.24,2.76h-1V35.89h.88c4.16,0,4.83.33,5.39,3.55h.48l-.11-4H181.09v.45h1.71V48h-1.71v.45H192L192.2,44h-.49C191.33,46.59,190.42,48,187.63,48Z"/><path class="a468fa37-dbe5-4b22-8b80-8be7b111b4ae" d="M345.83,48h-2.76V42.09h1c2.12,0,2.23.61,2.25,2.89h.55V38.77h-.55c0,2-.13,2.76-2.25,2.76h-1V35.89h.87c4.16,0,4.83.33,5.4,3.55h.47l-.11-4H339.29v.45H341V48h-1.71v.45h10.94L350.4,44h-.49C349.52,46.59,348.61,48,345.83,48Z"/><path class="a468fa37-dbe5-4b22-8b80-8be7b111b4ae" d="M203.85,45.12c-.14-2.87-1-3.24-3.68-3.57v0c1.75-.22,3.09-.84,3.09-3,0-2.64-1.63-3.13-3.94-3.13H194v.45h1.71V48H194v.45h5.42V48h-1.64V41.88h1.14c2.33,0,2.73.78,2.87,3.15.17,2.57.33,3.42,2.55,3.42h1.33V48h-.46C204.09,48,204,47.05,203.85,45.12Zm-6.08-3.8V35.89h.94c1.86,0,2.48,1,2.48,2.7,0,1.49-.53,2.73-2.15,2.73Z"/><path class="a468fa37-dbe5-4b22-8b80-8be7b111b4ae" d="M208.11,37.93a2.22,2.22,0,0,1,2.49-2.13c1.7,0,2.75,1,3.19,3.07h.48L214.16,36a8.57,8.57,0,0,0-3.36-.79c-2.15,0-4.11,1.29-4.11,3.6,0,4.49,7.05,3.23,7.05,6.74,0,1.74-1.49,2.52-3,2.52A4,4,0,0,1,207,44.16h-.5l.13,3.68a8.83,8.83,0,0,0,3.9.82c2.26,0,4.55-1.46,4.55-3.95C215.05,39.84,208.11,41.19,208.11,37.93Z"/><path class="a468fa37-dbe5-4b22-8b80-8be7b111b4ae" d="M303.71,37.93a2.22,2.22,0,0,1,2.49-2.13c1.7,0,2.76,1,3.19,3.07h.48l-.1-2.84a8.57,8.57,0,0,0-3.37-.79c-2.14,0-4.11,1.29-4.11,3.6,0,4.49,7.06,3.23,7.06,6.74,0,1.74-1.5,2.52-3,2.52a4,4,0,0,1-3.78-3.93h-.5l.13,3.68a8.89,8.89,0,0,0,3.9.82c2.26,0,4.56-1.46,4.56-3.95C310.66,39.84,303.71,41.19,303.71,37.93Z"/><polygon class="a468fa37-dbe5-4b22-8b80-8be7b111b4ae" points="216.44 35.9 218.15 35.9 218.15 47.99 216.44 47.99 216.44 48.45 221.93 48.45 221.93 47.99 220.22 47.99 220.22 35.9 221.93 35.9 221.93 35.44 216.44 35.44 216.44 35.9"/><path class="a468fa37-dbe5-4b22-8b80-8be7b111b4ae" d="M223.31,39.61h.55c.07-1.69.76-3.6,2.64-3.6h1.57V48h-2v.45h6.07V48h-2V36h1.57c1.86,0,2.57,1.91,2.64,3.6h.55V35.45H223.31Z"/><path class="a468fa37-dbe5-4b22-8b80-8be7b111b4ae" d="M279.29,39.61h.54c.08-1.69.77-3.6,2.64-3.6H284V48h-2v.45h6.07V48h-2V36h1.56c1.86,0,2.57,1.91,2.64,3.6h.55V35.45H279.29Z"/><path class="a468fa37-dbe5-4b22-8b80-8be7b111b4ae" d="M366.33,39.61h.54c.08-1.69.77-3.6,2.65-3.6h1.56V48h-2v.45h6.07V48h-2V36h1.57c1.85,0,2.56,1.91,2.64,3.6h.54V35.45H366.33Z"/><polygon class="a468fa37-dbe5-4b22-8b80-8be7b111b4ae" points="242.89 35.44 242.89 35.9 244.75 35.9 242.03 41.22 239.16 35.9 241.05 35.9 241.05 35.44 235.26 35.44 235.26 35.9 236.79 35.9 240.19 41.91 240.19 47.99 238.46 47.99 238.46 48.45 243.93 48.45 243.93 47.99 242.25 47.99 242.25 41.87 245.32 35.9 246.74 35.9 246.74 35.44 242.89 35.44"/><path class="a468fa37-dbe5-4b22-8b80-8be7b111b4ae" d="M328.16,48v-12h-1.71v-.49h5.61v.49h-1.7V48h1.7v.49h-5.61V48ZM334,35.43h3.41v.49h-1.24l-4,4.5,5.5,7.54h.94v.49h-4.82V48H335l-4.51-6.38,5.06-5.66H334Z"/><path class="e31f0364-d80f-4188-8880-81bbc35956a8" d="M6.7,26.45a.81.81,0,1,0-.81-.81A.81.81,0,0,0,6.7,26.45Z"/><path class="e31f0364-d80f-4188-8880-81bbc35956a8" d="M57,26.45a.81.81,0,1,0-.81-.81A.81.81,0,0,0,57,26.45Z"/><path class="e31f0364-d80f-4188-8880-81bbc35956a8" d="M31.85,0A31.85,31.85,0,1,0,63.69,31.85,31.85,31.85,0,0,0,31.85,0Zm0,62.84a31,31,0,1,1,31-31A31,31,0,0,1,31.85,62.84Z"/><path class="e31f0364-d80f-4188-8880-81bbc35956a8" d="M31.85,11.55a20.3,20.3,0,1,0,20.29,20.3A20.3,20.3,0,0,0,31.85,11.55Zm0,40.12A19.83,19.83,0,1,1,51.67,31.85,19.83,19.83,0,0,1,31.85,51.67Z"/><path class="e31f0364-d80f-4188-8880-81bbc35956a8" d="M43.87,21.54H39.2V20.36H37.43V15.27H30.31A4.25,4.25,0,0,0,27,16.6a4.81,4.81,0,0,0-1.1,3.26v1.68H20.33L18,43.33l14.08,6,14.08-6ZM32.12,48.82h0L18.56,43.06l0,0v0l2.22-20.93V22h5.63V19.86a4.31,4.31,0,0,1,1-2.95,3.78,3.78,0,0,1,2.94-1.17H37v5.08h1.77V22h4.71v.06L45.68,43v0l0,0Z"/><polygon class="b9517c06-da5c-4d0b-99ef-118c5a86a49c" points="38.74 24.39 38.67 24.39 36.97 24.39 36.97 27.61 38.67 27.61 38.74 27.61 38.74 27.67 38.74 28.43 43.31 28.43 42.72 22.82 38.74 22.82 38.74 24.32 38.74 24.39"/><polygon class="b9517c06-da5c-4d0b-99ef-118c5a86a49c" points="21.48 22.82 20.89 28.43 26.38 28.43 26.38 22.82 21.48 22.82"/><path class="acd314a0-201d-4111-8112-d9bc4dc86625" d="M43.39,29.19H38.74v2H37v2.72H31.46V29.19H29.39v.53c0,2.68-2.5,4.08-5,4.08h-.25V30.89h.16c1.16,0,2-.6,2-1.42v-.28H20.8L19.39,42.53,32.1,47.94l12.71-5.41Z"/><rect class="a52b7847-ff8f-486d-93de-9a3e0912c399" x="29.39" y="22.82" width="2.07" height="5.61"/><path class="eb9a3940-dcf4-4038-8291-f0cfa51bdae5" d="M30.79,18.34a1.41,1.41,0,0,0-1.4,1.55V22h2.07V18.34Zm.21,3.2H29.85V19.89a1,1,0,0,1,.94-1.09H31Z"/><path class="a2991fa6-8c0f-47ae-bc70-0b939e4166ca" d="M27.45,37.61a.57.57,0,0,0-.55.33,1.43,1.43,0,0,0-.16.71H26.3a1.58,1.58,0,0,1,.29-1.06,1,1,0,0,1,.89-.42,1.11,1.11,0,0,1,1.14,1.19,1.3,1.3,0,0,1-.27.88,4,4,0,0,1-.61.56l-.66.48a1,1,0,0,0-.37.63h1.87v.44H26.2a1.87,1.87,0,0,1,.35-1.09,3.37,3.37,0,0,1,.68-.62,4.56,4.56,0,0,0,.69-.59,1,1,0,0,0,.23-.69.74.74,0,0,0-.21-.55A.7.7,0,0,0,27.45,37.61Z"/><path class="a2991fa6-8c0f-47ae-bc70-0b939e4166ca" d="M30.44,41.42a.94.94,0,0,1-1-.72,5.61,5.61,0,0,1,0-2.82.93.93,0,0,1,1-.71.92.92,0,0,1,1,.71,5.61,5.61,0,0,1,0,2.82A.93.93,0,0,1,30.44,41.42Zm0-3.81c-.38,0-.59.2-.66.61a7.35,7.35,0,0,0-.09,1.08,7.56,7.56,0,0,0,.09,1.07.63.63,0,0,0,.66.61.62.62,0,0,0,.65-.61,7.74,7.74,0,0,0,.1-1.07,7.47,7.47,0,0,0-.1-1.08A.61.61,0,0,0,30.44,37.61Z"/><path class="a2991fa6-8c0f-47ae-bc70-0b939e4166ca" d="M33.82,37.17v4.18h-.5v-3h-.94v-.41a1.51,1.51,0,0,0,.68-.15.8.8,0,0,0,.37-.62Z"/><path class="a2991fa6-8c0f-47ae-bc70-0b939e4166ca" d="M37,37.17v2.76h.41v.44H37v1H36.6v-1H35v-.51l1.65-2.69Zm-1.65,2.76H36.6V37.87h0Z"/><polygon class="e31f0364-d80f-4188-8880-81bbc35956a8" points="29.52 4.83 29.87 4.8 30.03 7.25 29.68 7.27 29.69 7.36 30.8 7.28 30.79 7.19 30.45 7.22 30.29 4.78 30.63 4.76 30.63 4.66 29.52 4.74 29.52 4.83"/><polygon class="e31f0364-d80f-4188-8880-81bbc35956a8" points="40.78 6.23 41.16 6.35 40.6 8.04 40.6 8.04 39.94 5.85 39.15 5.59 39.12 5.68 39.44 5.78 38.67 8.1 38.35 8 38.32 8.08 39.13 8.35 39.16 8.27 38.77 8.14 39.52 5.9 39.52 5.9 40.39 8.81 40.46 8.82 41.27 6.39 41.59 6.49 41.62 6.41 40.81 6.14 40.78 6.23"/><polygon class="e31f0364-d80f-4188-8880-81bbc35956a8" points="17.83 8.63 18.13 8.46 19.35 10.58 19.05 10.75 19.09 10.83 20.05 10.28 20.01 10.2 19.71 10.37 18.49 8.25 18.79 8.08 18.74 8 17.78 8.56 17.83 8.63"/><polygon class="e31f0364-d80f-4188-8880-81bbc35956a8" points="55.76 19.13 55.95 19.48 54.39 20.34 54.39 20.34 55.39 18.29 54.99 17.55 54.91 17.6 55.07 17.89 52.93 19.08 52.77 18.78 52.69 18.82 53.1 19.57 53.18 19.53 52.98 19.17 55.05 18.03 55.05 18.04 53.71 20.76 53.76 20.82 56 19.58 56.16 19.87 56.25 19.83 55.84 19.09 55.76 19.13"/><polygon class="e31f0364-d80f-4188-8880-81bbc35956a8" points="50.07 11.79 50.32 12.01 49.56 12.86 48.71 12.1 49.47 11.25 49.71 11.47 49.78 11.4 48.96 10.67 48.9 10.74 49.16 10.97 47.53 12.79 47.27 12.56 47.21 12.63 48.03 13.36 48.09 13.3 47.84 13.07 48.65 12.17 49.5 12.93 48.69 13.84 48.44 13.61 48.38 13.68 49.2 14.41 49.26 14.34 49 14.11 50.63 12.29 50.89 12.52 50.95 12.46 50.13 11.72 50.07 11.79"/><polygon class="e31f0364-d80f-4188-8880-81bbc35956a8" points="9.55 16.43 9.74 16.15 10.68 16.79 10.04 17.74 9.1 17.1 9.28 16.83 9.21 16.77 8.59 17.68 8.67 17.73 8.86 17.45 10.89 18.82 10.69 19.1 10.77 19.15 11.38 18.25 11.31 18.2 11.12 18.47 10.12 17.79 10.76 16.84 11.76 17.52 11.58 17.8 11.65 17.85 12.27 16.94 12.19 16.89 12 17.18 9.97 15.81 10.17 15.52 10.09 15.47 9.48 16.38 9.55 16.43"/><path class="e31f0364-d80f-4188-8880-81bbc35956a8" d="M45.92,8.55l-.06,0-2.07,1.75-.27-.15-.05.07.71.43,0-.08-.33-.2.66-.57.58.35-.21.84-.32-.2-.05.08,1,.61,0-.07-.29-.18ZM44.64,9.69l.76-.64h0l-.23.95Z"/><path class="e31f0364-d80f-4188-8880-81bbc35956a8" d="M11.23,14.08l-.05.05,1.39,2.34-.2.24.07.06.53-.63-.07-.06-.25.3-.45-.74.44-.52.79.34-.25.29.07.06.77-.89L14,14.86l-.22.25Zm.9,1.45-.5-.85h0l.91.39Z"/><path class="e31f0364-d80f-4188-8880-81bbc35956a8" d="M14.31,11.15l.3-.26,1.13,1.29c.29.33.43.59-.09,1.05s-.67.29-1-.07l-1.15-1.31.27-.24-.06-.07-.84.74.06.07.26-.22,1.18,1.35c.33.37.6.49,1.26-.09s.55-.88.21-1.26l-1.16-1.32.23-.2-.06-.07-.61.54Z"/><polygon class="e31f0364-d80f-4188-8880-81bbc35956a8" points="8 18.91 8.19 18.55 9.76 19.38 9.76 19.38 7.5 19.68 7.11 20.42 7.19 20.47 7.35 20.16 9.52 21.29 9.36 21.59 9.44 21.64 9.84 20.88 9.75 20.84 9.57 21.2 7.47 20.11 7.48 20.1 10.49 19.71 10.51 19.64 8.24 18.46 8.39 18.16 8.31 18.12 7.92 18.87 8 18.91"/><polygon class="e31f0364-d80f-4188-8880-81bbc35956a8" points="16.74 9.3 17.07 9.08 18.08 10.54 18.08 10.54 15.94 9.75 15.25 10.23 15.3 10.31 15.57 10.11 16.97 12.12 16.69 12.31 16.75 12.39 17.45 11.9 17.39 11.83 17.06 12.06 15.71 10.12 15.72 10.12 18.57 11.17 18.62 11.12 17.16 9.02 17.43 8.82 17.38 8.75 16.69 9.23 16.74 9.3"/><polygon class="e31f0364-d80f-4188-8880-81bbc35956a8" points="6.61 21.97 6.74 21.65 9 22.58 8.87 22.9 8.95 22.94 9.37 21.91 9.29 21.88 9.16 22.2 6.9 21.26 7.03 20.94 6.95 20.91 6.52 21.93 6.61 21.97"/><polygon class="e31f0364-d80f-4188-8880-81bbc35956a8" points="20.64 7.13 20.99 6.97 21.22 8.99 21.22 8.99 19.84 7.51 20.18 7.35 20.14 7.27 19.13 7.74 19.17 7.83 19.44 7.7 21.32 9.66 21.39 9.63 21.1 6.91 21.35 6.79 21.31 6.71 20.61 7.05 20.64 7.13"/><path class="e31f0364-d80f-4188-8880-81bbc35956a8" d="M23.93,8.48l-.53.19L23,7.54l.19-.06c.4-.15.46,0,.62.4l.1,0-.41-1.19-.11,0c.14.38.16.54-.24.68L23,7.43l-.38-1.07.17-.06c.8-.28.95-.26,1.27.32l.09,0-.29-.75-2,.69,0,.09.33-.11L23,8.8l-.32.12,0,.08,2.09-.72-.27-.86-.09,0C24.54,8,24.46,8.3,23.93,8.48Z"/><path class="e31f0364-d80f-4188-8880-81bbc35956a8" d="M52.14,17.86l-.32-.45,1-.69.11.17c.25.35.16.44-.21.7l.06.09,1-.72-.06-.09c-.33.23-.48.3-.72-.05l-.12-.16.94-.66.1.15c.48.69.5.84,0,1.3l.05.08.65-.48-1.21-1.72-.07.05.2.28-2,1.4-.19-.28-.08,0,1.27,1.81.75-.48,0-.08C52.8,18.31,52.47,18.32,52.14,17.86Z"/><path class="e31f0364-d80f-4188-8880-81bbc35956a8" d="M26.91,7.07c-.16-.56-.33-.59-.89-.53h0c.34-.12.57-.31.48-.72s-.47-.54-.92-.44l-1,.25,0,.09.34-.08L25.44,8l-.33.08v.09l1.07-.25,0-.09-.32.07-.28-1.2.22,0c.46-.11.57,0,.71.49s.22.65.66.55l.26-.06,0-.09-.09,0C27.09,7.63,27,7.45,26.91,7.07ZM25.54,6.6l-.25-1.07.19,0c.37-.08.53.08.61.42s0,.56-.3.63Z"/><path class="e31f0364-d80f-4188-8880-81bbc35956a8" d="M27.78,5.45A.44.44,0,0,1,28.22,5c.34,0,.58.12.72.53l.1,0-.1-.56a1.66,1.66,0,0,0-.7-.07.75.75,0,0,0-.72.83c.12.9,1.5.46,1.59,1.16.05.35-.23.55-.53.59a.8.8,0,0,1-.86-.69h-.1l.12.74a2,2,0,0,0,.8.06.86.86,0,0,0,.81-.92C29.22,5.65,27.86,6.1,27.78,5.45Z"/><path class="e31f0364-d80f-4188-8880-81bbc35956a8" d="M47.17,10a.44.44,0,0,1,.66-.05c.28.2.33.49.15.88l.08,0,.32-.47a1.65,1.65,0,0,0-.45-.53.76.76,0,0,0-1.1.09c-.54.74.76,1.37.35,1.94a.53.53,0,0,1-.79.06.8.8,0,0,1-.15-1.09l-.08-.06-.42.61a1.85,1.85,0,0,0,.54.6.85.85,0,0,0,1.21-.1C48.07,11.13,46.78,10.52,47.17,10Z"/><polygon class="e31f0364-d80f-4188-8880-81bbc35956a8" points="37.55 5.34 37.89 5.42 37.32 7.8 36.99 7.72 36.97 7.81 38.05 8.06 38.07 7.97 37.73 7.89 38.29 5.51 38.63 5.59 38.65 5.51 37.57 5.25 37.55 5.34"/><path class="e31f0364-d80f-4188-8880-81bbc35956a8" d="M31,5.47h.11c0-.35.17-.73.55-.73H32l0,2.42h-.4v.1h1.23V7.19h-.41l0-2.42h.32c.37,0,.51.39.52.73h.11V4.66L31,4.63Z"/><path class="e31f0364-d80f-4188-8880-81bbc35956a8" d="M42.29,7.62l.1,0c.16-.3.46-.59.8-.42l.28.14-1,2.17-.37-.17,0,.08,1.11.54,0-.09-.37-.17,1.06-2.18.28.14c.34.16.3.57.17.88l.1.05.36-.75-2.1-1Z"/><path class="e31f0364-d80f-4188-8880-81bbc35956a8" d="M55.62,20.45l0,.11c.32-.12.73-.15.88.2l.12.29L54.44,22l-.16-.37-.09,0,.48,1.13.09,0-.16-.38,2.23-.94.12.29c.15.34-.15.63-.46.77l0,.11.78-.33-.92-2.16Z"/><polygon class="e31f0364-d80f-4188-8880-81bbc35956a8" points="35.36 4.87 35.35 4.96 35.72 5 35.05 6.01 34.6 4.87 34.98 4.92 34.99 4.83 33.83 4.69 33.82 4.78 34.12 4.82 34.66 6.1 34.52 7.33 34.18 7.28 34.16 7.38 35.27 7.5 35.27 7.41 34.94 7.37 35.08 6.14 35.84 5.02 36.12 5.05 36.13 4.96 35.36 4.87"/><path class="e31f0364-d80f-4188-8880-81bbc35956a8" d="M49.79,14.91l1.83-1.6-.23-.26.07-.07.75.85-.07.07-.23-.26-1.83,1.61.23.25-.08.07-.74-.85.07-.07Zm2.68-.78.46.52-.08.06-.16-.18H51.47l-.41,1.84.12.14-.07.07-.64-.74.07-.06.15.17.37-1.53H52.6l-.2-.23Z"/><polygon class="e31f0364-d80f-4188-8880-81bbc35956a8" points="33.76 56.29 34.1 56.26 34.35 58.67 34.01 58.71 34.02 58.8 35.11 58.69 35.1 58.6 34.76 58.63 34.52 56.22 34.86 56.19 34.85 56.09 33.75 56.2 33.76 56.29"/><polygon class="e31f0364-d80f-4188-8880-81bbc35956a8" points="50.09 48.24 50.31 47.98 52.15 49.57 51.92 49.83 51.99 49.88 52.71 49.05 52.64 48.99 52.42 49.25 50.58 47.67 50.8 47.41 50.74 47.35 50.02 48.19 50.09 48.24"/><polygon class="e31f0364-d80f-4188-8880-81bbc35956a8" points="55.47 38.48 55.56 38.15 57.91 38.75 57.82 39.08 57.91 39.11 58.18 38.04 58.09 38.02 58.01 38.35 55.66 37.75 55.75 37.41 55.66 37.39 55.38 38.46 55.47 38.48"/><polygon class="e31f0364-d80f-4188-8880-81bbc35956a8" points="39.33 55.18 39.7 55.06 40.21 56.76 40.2 56.76 38.43 55.35 37.63 55.59 37.66 55.68 37.98 55.58 38.67 57.9 38.35 58 38.38 58.09 39.19 57.84 39.16 57.76 38.78 57.87 38.11 55.63 38.12 55.63 40.48 57.5 40.54 57.47 39.81 55.03 40.13 54.94 40.1 54.85 39.3 55.09 39.33 55.18"/><polygon class="e31f0364-d80f-4188-8880-81bbc35956a8" points="16.39 50.89 16.64 51.1 15.92 51.98 15.05 51.25 15.77 50.38 16.02 50.59 16.08 50.52 15.24 49.83 15.19 49.9 15.45 50.12 13.9 51.99 13.64 51.77 13.58 51.84 14.42 52.53 14.48 52.46 14.22 52.25 14.99 51.32 15.87 52.04 15.1 52.97 14.84 52.76 14.79 52.83 15.62 53.52 15.68 53.45 15.42 53.24 16.96 51.37 17.23 51.59 17.28 51.52 16.45 50.82 16.39 50.89"/><polygon class="e31f0364-d80f-4188-8880-81bbc35956a8" points="7.92 37.36 7.99 37.68 6.89 37.92 6.65 36.82 7.75 36.57 7.82 36.9 7.91 36.88 7.67 35.82 7.58 35.84 7.66 36.17 5.29 36.69 5.22 36.36 5.13 36.38 5.36 37.44 5.45 37.42 5.38 37.1 6.56 36.84 6.8 37.94 5.63 38.2 5.56 37.88 5.47 37.9 5.7 38.96 5.79 38.94 5.72 38.61 8.08 38.09 8.16 38.42 8.25 38.4 8.01 37.34 7.92 37.36"/><path class="e31f0364-d80f-4188-8880-81bbc35956a8" d="M29.87,56.17H29.8l-1.07,2.48-.31,0v.09l.81.07v-.09l-.39,0,.34-.8.67.06.18.83-.38,0v.09l1.17.1v-.09l-.34,0Zm-.64,1.58.39-.9h0l.21.95Z"/><path class="e31f0364-d80f-4188-8880-81bbc35956a8" d="M18.45,52.26l-.06,0-2.12,1.67L16,53.72l0,.07.68.45,0-.07L16.37,54l.68-.54.56.37-.24.82-.31-.21,0,.08,1,.64.05-.07-.28-.19Zm-1.31,1.08.77-.6h0l-.27.94Z"/><path class="e31f0364-d80f-4188-8880-81bbc35956a8" d="M44,53l-.07,0,.52,2.65-.27.15,0,.08.7-.4,0-.08-.33.19-.18-.85.59-.33.62.59-.32.19,0,.08,1-.59,0-.07-.3.16Zm.36,1.66-.19-1h0l.71.67Z"/><polygon class="e31f0364-d80f-4188-8880-81bbc35956a8" points="11.18 45.05 11.39 45.39 9.89 46.31 9.88 46.31 10.79 44.23 10.35 43.52 10.27 43.57 10.45 43.85 8.38 45.13 8.21 44.84 8.13 44.89 8.57 45.61 8.65 45.56 8.44 45.22 10.43 43.99 10.44 44 9.23 46.76 9.29 46.81 11.45 45.48 11.62 45.77 11.7 45.72 11.26 45 11.18 45.05"/><path class="e31f0364-d80f-4188-8880-81bbc35956a8" d="M55.28,45.15l-.27.48L54,45l.1-.17c.22-.37.33-.33.73-.1l0-.1-1.07-.62-.06.09c.35.2.47.3.26.67l-.1.17-1-.56.09-.16c.42-.72.54-.8,1.15-.58l.05-.08-.7-.38-1,1.81.08,0,.17-.29L54.8,46l-.17.3.08,0,1.1-1.9L55.05,44,55,44C55.41,44.37,55.56,44.67,55.28,45.15Z"/><path class="e31f0364-d80f-4188-8880-81bbc35956a8" d="M13.77,49a.45.45,0,0,1,.66.05.64.64,0,0,1,0,.89l.07.07.39-.42a1.71,1.71,0,0,0-.36-.59.77.77,0,0,0-1.1-.08c-.63.64.54,1.46,0,2a.53.53,0,0,1-.78-.07.79.79,0,0,1,0-1.09l-.07-.07-.51.54a2,2,0,0,0,.44.67.84.84,0,0,0,1.2.08C14.48,50.3,13.31,49.5,13.77,49Z"/><polygon class="e31f0364-d80f-4188-8880-81bbc35956a8" points="20.96 53.82 21.26 53.97 20.75 54.98 19.73 54.47 20.25 53.46 20.54 53.61 20.58 53.53 19.61 53.04 19.57 53.12 19.88 53.27 18.78 55.44 18.48 55.28 18.43 55.36 19.4 55.85 19.44 55.77 19.15 55.63 19.7 54.55 20.71 55.06 20.16 56.14 19.87 55.99 19.83 56.07 20.8 56.56 20.84 56.48 20.53 56.32 21.63 54.16 21.93 54.31 21.97 54.23 21 53.74 20.96 53.82"/><polygon class="e31f0364-d80f-4188-8880-81bbc35956a8" points="41.74 54.28 42.04 54.15 42.49 55.19 41.45 55.63 41 54.6 41.3 54.47 41.27 54.38 40.27 54.81 40.3 54.89 40.62 54.76 41.58 56.99 41.26 57.12 41.3 57.21 42.3 56.78 42.26 56.7 41.96 56.83 41.48 55.72 42.52 55.27 43 56.38 42.7 56.51 42.73 56.59 43.73 56.16 43.7 56.08 43.38 56.22 42.42 53.99 42.74 53.85 42.7 53.77 41.7 54.2 41.74 54.28"/><path class="e31f0364-d80f-4188-8880-81bbc35956a8" d="M55.28,40.27a.45.45,0,0,1-.24-.61c.11-.32.37-.46.79-.41l0-.09L55.31,39a1.57,1.57,0,0,0-.36.59.75.75,0,0,0,.42,1c.85.29,1.06-1.13,1.73-.91a.53.53,0,0,1,.28.73.78.78,0,0,1-1,.47l0,.09.71.22a2,2,0,0,0,.41-.69A.86.86,0,0,0,57,39.39C56.09,39.08,55.9,40.48,55.28,40.27Z"/><path class="e31f0364-d80f-4188-8880-81bbc35956a8" d="M56.55,37.32l0-.1c-.33-.08-.68-.28-.62-.65l.06-.31,2.36.42-.07.39.09,0,.21-1.2-.09,0-.07.4-2.36-.42.05-.31c.07-.36.47-.44.81-.39V35l-.82-.14-.4,2.28Z"/><path class="e31f0364-d80f-4188-8880-81bbc35956a8" d="M57.15,32.43v-.12c-.34,0-.72-.13-.73-.51v-.31l2.4,0v.4h.09l0-1.21h-.09V31l-2.4.05v-.31c0-.37.38-.52.72-.55v-.1h-.83l0,2.32Z"/><path class="e31f0364-d80f-4188-8880-81bbc35956a8" d="M47.37,50.81l.31-.24,1,1.34c.27.35.39.61-.15,1s-.68.25-1-.12l-1.07-1.36.29-.23-.06-.07-.87.69.05.07.27-.21,1.09,1.4c.31.39.56.53,1.25,0s.59-.84.28-1.23l-1.07-1.37.24-.19L48,50.25l-.63.49Z"/><polygon class="e31f0364-d80f-4188-8880-81bbc35956a8" points="49.31 49.04 49.59 48.76 50.82 50.02 50.82 50.03 48.6 49.61 48 50.19 48.06 50.26 48.3 50.02 50 51.76 49.76 51.99 49.82 52.05 50.42 51.46 50.36 51.4 50.08 51.68 48.44 50.01 48.44 50 51.41 50.56 51.44 50.5 49.67 48.69 49.91 48.45 49.84 48.39 49.24 48.98 49.31 49.04"/><polygon class="e31f0364-d80f-4188-8880-81bbc35956a8" points="56.32 29.89 56.28 29.54 58.7 29.3 58.73 29.64 58.82 29.63 58.71 28.54 58.62 28.55 58.65 28.89 56.24 29.13 56.21 28.79 56.12 28.8 56.23 29.89 56.32 29.89"/><polygon class="e31f0364-d80f-4188-8880-81bbc35956a8" points="51.96 45.84 52.18 45.54 53.36 47.19 53.35 47.19 51.44 46.56 51.66 46.26 51.59 46.21 50.94 47.1 51.02 47.16 51.19 46.91 53.76 47.72 53.81 47.66 52.26 45.44 52.41 45.22 52.34 45.17 51.89 45.79 51.96 45.84"/><path class="e31f0364-d80f-4188-8880-81bbc35956a8" d="M58.75,33.6l0,.55-1.17-.09v-.2c0-.42.15-.43.61-.4v-.11l-1.24-.09v.11c.39,0,.55.06.52.49l0,.19L56.3,34v-.18c.06-.83.13-1,.79-1v-.1l-.8,0-.15,2.08h.09l0-.35,2.42.18,0,.34h.09l.16-2.19L58,32.63v.09C58.53,32.84,58.8,33,58.75,33.6Z"/><path class="e31f0364-d80f-4188-8880-81bbc35956a8" d="M7.61,43.59l-.24-.5,1.07-.51.08.18c.18.38.08.45-.33.65l.05.1L9.36,43l0-.1c-.36.17-.51.21-.7-.17l-.08-.18,1-.49.07.16c.36.75.36.9-.17,1.28l0,.09.71-.37-.9-1.88-.08,0,.15.31-2.19,1L7,42.41l-.08,0,1,2,.82-.35L8.68,44C8.18,44.14,7.85,44.09,7.61,43.59Z"/><path class="e31f0364-d80f-4188-8880-81bbc35956a8" d="M56.32,41.72c-.54-.21-.67-.08-1,.39h0c.1-.33.1-.63-.29-.8s-.7.05-.89.47l-.43,1,.08,0,.14-.31,2.22,1-.14.31.08,0,.44-1-.08,0-.13.3-1.12-.5.09-.21c.19-.42.36-.43.81-.27s.65.22.83-.19l.11-.24-.09,0,0,.09C56.87,41.91,56.68,41.86,56.32,41.72Zm-1.19.81-1-.44.07-.17a.46.46,0,0,1,.7-.24c.27.12.46.32.33.61Z"/><path class="e31f0364-d80f-4188-8880-81bbc35956a8" d="M23.53,56.88c.17-.55,0-.67-.44-.92h0c.34.08.64.06.78-.34s-.09-.7-.52-.86l-1-.37,0,.09.32.12-.83,2.28-.32-.12,0,.08,1,.38,0-.09L22.19,57l.42-1.15.22.07c.43.16.46.34.32.79s-.17.67.24.82l.25.09,0-.08-.08,0C23.38,57.44,23.42,57.25,23.53,56.88Zm-.88-1.13.37-1,.18.07c.35.12.4.35.28.67s-.28.48-.59.37Z"/><path class="e31f0364-d80f-4188-8880-81bbc35956a8" d="M7,34.32a.44.44,0,0,1,.49.44c0,.34-.14.58-.54.71l0,.1.56-.09a1.63,1.63,0,0,0,.07-.69.74.74,0,0,0-.81-.73c-.89.11-.47,1.48-1.17,1.57-.35,0-.54-.24-.57-.54a.79.79,0,0,1,.69-.85l0-.09L5,34.26a2,2,0,0,0-.06.8.84.84,0,0,0,.89.81C6.79,35.75,6.36,34.4,7,34.32Z"/><polygon class="e31f0364-d80f-4188-8880-81bbc35956a8" points="36.31 55.96 36.65 55.89 37.14 58.26 36.81 58.33 36.83 58.42 37.9 58.2 37.88 58.11 37.55 58.18 37.05 55.8 37.39 55.73 37.37 55.65 36.29 55.87 36.31 55.96"/><polygon class="e31f0364-d80f-4188-8880-81bbc35956a8" points="24.83 55.36 25.16 55.45 24.52 57.79 24.18 57.7 24.16 57.78 25.22 58.07 25.25 57.99 24.91 57.89 25.55 55.56 25.89 55.65 25.91 55.56 24.85 55.27 24.83 55.36"/><path class="e31f0364-d80f-4188-8880-81bbc35956a8" d="M11.06,46.28l.06.08c.28-.19.67-.31.9,0l.19.25L10.3,48.05l-.24-.32-.07.06.74,1,.07-.06-.25-.32,1.91-1.46.19.25c.23.3,0,.64-.25.86l.07.09.66-.51-1.41-1.84Z"/><path class="e31f0364-d80f-4188-8880-81bbc35956a8" d="M6.67,28.71v.11c.34,0,.71.21.68.58l0,.32-2.4-.19,0-.4H4.87l-.1,1.22h.09l0-.4,2.39.19,0,.31c0,.37-.42.49-.76.47V31l.83.07.19-2.31Z"/><path class="e31f0364-d80f-4188-8880-81bbc35956a8" d="M6.12,40l2.28-.8-.12-.32.09,0,.38,1.06-.09,0-.12-.33-2.27.81.11.32-.09,0-.38-1.06.1,0Zm2.76.27.23.65-.1,0-.08-.23-1.12-.46-1,1.55.06.17-.09,0-.33-.9.1,0,.07.22L7.48,40l1.41.58-.1-.29Z"/><path class="e31f0364-d80f-4188-8880-81bbc35956a8" d="M7.4,32.51a1.18,1.18,0,0,0-1.34-1.12,1.16,1.16,0,1,0,.06,2.31A1.19,1.19,0,0,0,7.4,32.51Zm-2,.67A.5.5,0,0,1,5,32.94a.87.87,0,0,1-.11-.37A.64.64,0,0,1,5,32.11a.71.71,0,0,1,.38-.18,4.5,4.5,0,0,1,.64-.06,3.47,3.47,0,0,1,.81,0,.53.53,0,0,1,.33.22.84.84,0,0,1,.1.39.62.62,0,0,1-.08.36.45.45,0,0,1-.28.24,2.42,2.42,0,0,1-.71.09A5,5,0,0,1,5.37,33.18Z"/><path class="e31f0364-d80f-4188-8880-81bbc35956a8" d="M26.19,58.19l.43-2.36-.33-.06,0-.09,1.1.19a1.8,1.8,0,0,1,.63.24,1,1,0,0,1,.37.52,1.46,1.46,0,0,1,.05.75,1.39,1.39,0,0,1-.33.69,1.12,1.12,0,0,1-.54.36,1.59,1.59,0,0,1-.65,0l-1.09-.19,0-.1Zm.86-2.28-.42,2.36.31.06a2.06,2.06,0,0,0,.41,0,.47.47,0,0,0,.3-.16.92.92,0,0,0,.21-.38,4.06,4.06,0,0,0,.16-.63,1.79,1.79,0,0,0,0-.73.55.55,0,0,0-.23-.35,1.7,1.7,0,0,0-.43-.13Z"/><path class="e31f0364-d80f-4188-8880-81bbc35956a8" d="M33.13,57H33a1.11,1.11,0,0,0-.09-.28.64.64,0,0,0-.65-.44.58.58,0,0,0-.43.14.66.66,0,0,0-.16.36,7.25,7.25,0,0,0,.05,1.55.55.55,0,0,0,.19.35.5.5,0,0,0,.34.11.55.55,0,0,0,.29-.08.28.28,0,0,0,.15-.21,2,2,0,0,0,0-.41V58h-.35v-.1l1.17,0V58h-.3a.84.84,0,0,1-.29.72,1.11,1.11,0,0,1-.63.23,1,1,0,0,1-.82-.39,1.5,1.5,0,0,1-.34-.94,1.56,1.56,0,0,1,.31-1,1,1,0,0,1,.82-.41.92.92,0,0,1,.62.23c.06,0,.11-.07.11-.07h.1Z"/></g></g></svg>